<svg height="496pt" viewBox="0 -3 496 496" width="496pt" xmlns="http://www.w3.org/2000/svg"><path d="m488 451.863281v29.921875h-160v-29.921875c0-10.71875 7.121094-20.078125 17.441406-23.039062l38.558594-11.039063s8 16 24 16 24-16 24-16l38.558594 11.039063c10.320312 2.960937 17.441406 12.320312 17.441406 23.039062zm0 0" fill="#b4dd7f"/><path d="m168 451.863281v29.921875h-160v-29.921875c0-10.71875 7.121094-20.078125 17.441406-23.039062l38.558594-11.039063s8 16 24 16 24-16 24-16l38.558594 11.039063c10.320312 2.960937 17.441406 12.320312 17.441406 23.039062zm0 0" fill="#b4dd7f"/><path d="m328 451.863281v29.921875h-160v-29.921875c0-10.71875 7.121094-20.078125 17.441406-23.039062l38.558594-11.039063s8 16 24 16 24-16 24-16l38.558594 11.039063c10.320312 2.960937 17.441406 12.320312 17.441406 23.039062zm0 0" fill="#b4dd7f"/><path d="m416 169.785156h-392v224h40c-9.679688-7.28125-16-18.960937-16-32v-16c0-22.082031 17.921875-40 40-40 11.039062 0 21.039062 4.480469 28.320312 11.679688 7.199219 7.277344 11.679688 17.277344 11.679688 28.320312v16c0 13.039063-6.320312 24.71875-16 32h112c-9.679688-7.28125-16-18.960937-16-32v-16c0-9.519531 3.359375-18.242187 8.878906-25.121094l-24.878906-14.878906h-32c-4.398438 0-8-3.601562-8-8v-64c0-4.402344 3.601562-8 8-8h32l40-24h32v107.359375c4.640625 2 8.800781 4.800781 12.320312 8.320313 7.199219 7.277344 11.679688 17.277344 11.679688 28.320312v16c0 13.039063-6.320312 24.71875-16 32h112c-9.679688-7.28125-16-18.960937-16-32v-16c0-22.082031 17.921875-40 40-40 11.039062 0 21.039062 4.480469 28.320312 11.679688 7.199219 7.277344 11.679688 17.277344 11.679688 28.320312v16c0 13.039063-6.320312 24.71875-16 32h40v-224zm0 0" fill="#e6e9ed"/><path d="m472 121.785156v48h-56l24-48zm0 0" fill="#838f9b"/><path d="m400 121.785156-24 48h-64l24-48zm0 0" fill="#838f9b"/><path d="m296 121.785156-24 48h-64l24-48zm0 0" fill="#838f9b"/><path d="m192 121.785156-24 48h-64l24-48zm0 0" fill="#838f9b"/><path d="m88 121.785156-24 48h-40v-48zm0 0" fill="#838f9b"/><g fill="#fcd770"><path d="m216.800781 67.382812-7.199219 50.242188-17.601562 4.160156h-21.921875l6.402344-44.722656zm0 0"/><path d="m311.839844 44.503906.160156.640625-7.121094 50.078125-40.238281 9.441406 7.199219-50.558593zm0 0"/><path d="m407.441406 21.464844-7.28125 51.359375-40.238281 9.441406 7.277344-51.121094zm0 0"/><path d="m440 121.785156-24 48h-40l24-48zm0 0"/><path d="m336 121.785156-24 48h-40l24-48zm0 0"/><path d="m232 121.785156-24 48h-40l24-48zm0 0"/><path d="m128 121.785156-24 48h-40l24-48zm0 0"/></g><path d="m176.480469 77.0625-6.402344 44.722656h-146.078125v-8zm0 0" fill="#838f9b"/><path d="m271.839844 54.105469-7.199219 50.558593-55.039063 12.960938 7.199219-50.242188zm0 0" fill="#838f9b"/><path d="m367.199219 31.144531-7.277344 51.121094-55.042969 12.957031 7.121094-50.078125-.160156-.640625zm0 0" fill="#838f9b"/><path d="m456 9.785156 8 48-63.839844 15.039063 7.28125-51.359375zm0 0" fill="#838f9b"/><path d="m432 393.785156v24s-8 16-24 16-24-16-24-16v-24c6.640625 5.039063 14.960938 8 24 8s17.359375-2.960937 24-8zm0 0" fill="#f0d0b4"/><path d="m448 345.785156v16c0 13.039063-6.320312 24.71875-16 32-6.640625 5.039063-14.960938 8-24 8s-17.359375-2.960937-24-8c-9.679688-7.28125-16-18.960937-16-32v-16c0-22.082031 17.921875-40 40-40 11.039062 0 21.039062 4.480469 28.320312 11.679688 7.199219 7.277344 11.679688 17.277344 11.679688 28.320312zm0 0" fill="#f0d0b4"/><path d="m288 345.785156v16c0 13.039063-6.320312 24.71875-16 32-6.640625 5.039063-14.960938 8-24 8s-17.359375-2.960937-24-8c-9.679688-7.28125-16-18.960937-16-32v-16c0-9.519531 3.359375-18.242187 8.878906-25.121094 4-4.960937 9.199219-8.960937 15.121094-11.519531v-.082031c4.878906-2.078125 10.320312-3.277344 16-3.277344s11.121094 1.199219 16 3.277344v.082031c4.640625 2 8.800781 4.800781 12.320312 8.320313 7.199219 7.277344 11.679688 17.277344 11.679688 28.320312zm0 0" fill="#f0d0b4"/><path d="m272 393.785156v24s-8 16-24 16-24-16-24-16v-24c6.640625 5.039063 14.960938 8 24 8s17.359375-2.960937 24-8zm0 0" fill="#f0d0b4"/><path d="m264 201.785156v107.277344c-4.878906-2.078125-10.320312-3.277344-16-3.277344s-11.121094 1.199219-16 3.277344v-107.277344zm0 0" fill="#ff826e"/><path d="m232 309.0625v.082031c-5.921875 2.558594-11.121094 6.558594-15.121094 11.519531l-24.878906-14.878906h-32c-4.398438 0-8-3.601562-8-8v-64c0-4.402344 3.601562-8 8-8h32l40-24zm0 0" fill="#ffeaa7"/><path d="m128 345.785156v16c0 13.039063-6.320312 24.71875-16 32-6.640625 5.039063-14.960938 8-24 8s-17.359375-2.960937-24-8c-9.679688-7.28125-16-18.960937-16-32v-16c0-22.082031 17.921875-40 40-40 11.039062 0 21.039062 4.480469 28.320312 11.679688 7.199219 7.277344 11.679688 17.277344 11.679688 28.320312zm0 0" fill="#f0d0b4"/><path d="m112 393.785156v24s-8 16-24 16-24-16-24-16v-24c6.640625 5.039063 14.960938 8 24 8s17.359375-2.960937 24-8zm0 0" fill="#f0d0b4"/><path d="m311.601562 305.382812 11.308594 11.3125c13.601563-13.597656 21.089844-31.6875 21.089844-50.910156 0-19.226562-7.488281-37.3125-21.089844-50.914062l-11.308594 11.3125c10.574219 10.578125 16.398438 24.648437 16.398438 39.601562 0 14.949219-5.824219 29.023438-16.398438 39.597656zm0 0"/><path d="m300.289062 294.0625c7.550782-7.550781 11.710938-17.589844 11.710938-28.277344s-4.160156-20.730468-11.710938-28.28125l-11.3125 11.3125c4.527344 4.527344 7.023438 10.558594 7.023438 16.96875 0 6.40625-2.496094 12.4375-7.023438 16.96875zm0 0"/><path d="m472.792969 421.113281-32.792969-9.359375v-9.96875h40v-288h-219.070312l212.191406-49.929687-10.640625-63.855469-446.480469 107.480469v294.304687h40v9.96875l-32.792969 9.359375c-13.664062 3.902344-23.207031 16.558594-23.207031 30.773438v37.898437h496v-37.898437c0-14.214844-9.542969-26.871094-23.207031-30.773438zm-144.792969 9.808594c-3.96875-4.554687-9.144531-8.074219-15.207031-9.808594l-32.792969-9.359375v-9.96875h96v9.96875l-32.792969 9.359375c-6.0625 1.734375-11.238281 5.253907-15.207031 9.808594zm-8 42.863281h-144v-21.898437c0-7.109375 4.777344-13.429688 11.601562-15.382813l32.957032-9.414062c4.640625 6.046875 13.664062 14.695312 27.441406 14.695312s22.800781-8.648437 27.441406-14.707031l32.957032 9.417969c6.824218 1.960937 11.601562 8.28125 11.601562 15.390625zm-167.207031-52.671875-32.792969-9.359375v-9.96875h96v9.96875l-32.792969 9.359375c-6.0625 1.734375-11.238281 5.253907-15.207031 9.808594-3.96875-4.554687-9.144531-8.074219-15.207031-9.808594zm-32.792969-59.328125c0 17.648438-14.351562 32-32 32s-32-14.351562-32-32v-16c0-17.648437 14.351562-32 32-32s32 14.351563 32 32zm-48 45.199219c5.015625 1.785156 10.382812 2.800781 16 2.800781s10.984375-1.023437 16-2.800781v8.601563c-1.984375 3.0625-7.496094 10.199218-16 10.199218s-14.015625-7.144531-16-10.199218zm160 0c5.015625 1.785156 10.382812 2.800781 16 2.800781s10.984375-1.023437 16-2.800781v8.601563c-1.984375 3.0625-7.496094 10.199218-16 10.199218s-14.015625-7.144531-16-10.199218zm48-45.199219c0 17.648438-14.351562 32-32 32s-32-14.351562-32-32v-16c0-17.648437 14.351562-32 32-32s32 14.351563 32 32zm-24-63.28125c-2.609375-.441406-5.273438-.71875-8-.71875s-5.390625.277344-8 .71875v-88.71875h16zm-32 5.777344c-3.0625 1.773438-5.902344 3.886719-8.496094 6.277344l-21.289062-12.773438h-34.214844v-64h34.214844l29.785156-17.875zm216 57.503906c0 17.648438-14.351562 32-32 32s-32-14.351562-32-32v-16c0-17.648437 14.351562-32 32-32s32 14.351563 32 32zm-48 45.199219c5.015625 1.785156 10.382812 2.800781 16 2.800781s10.984375-1.023437 16-2.800781v8.601563c-1.984375 3.0625-7.496094 10.199218-16 10.199218s-14.015625-7.144531-16-10.199218zm72-245.199219h-35.054688l16-32h19.054688zm-111.214844-86.050781-38.371094 9.027344 4.832032-33.824219 38.402344-9.242188zm21.597656-38.070313 23.503907-5.65625-4.894531 34.273438-23.488282 5.527344zm-76.6875 51.03125-23.488281 5.527344 4.800781-33.597656 23.503907-5.65625zm-40.207031 9.457032-38.3125 9.015625 4.753907-33.289063 38.335937-9.230468zm-55.03125 12.953125-11.394531 2.679687h-11.726562l4.3125-30.210937 23.550781-5.671875zm-39.28125 2.679687h-104.984375l108.730469-26.175781zm-88.121093 16-16 32h-27.054688v-32zm17.890624 0h22.109376l-16 32h-22.109376zm40 0h46.109376l-16 32h-46.109376zm64 0h22.109376l-16 32h-22.109376zm40 0h46.109376l-16 32h-46.109376zm64 0h22.109376l-16 32h-22.109376zm40 0h46.109376l-16 32h-46.109376zm64 0h22.109376l-16 32h-22.109376zm49.933594-78.074218-45.160156 10.625 4.90625-34.367188 34.894531-8.402344zm-422.878906 126.074218h432v208h-14.496094c4.105469-7.074218 6.496094-15.257812 6.496094-24v-16c0-26.472656-21.527344-48-48-48s-48 21.527344-48 48v16c0 8.742188 2.390625 16.925782 6.496094 24h-76.992188c4.105469-7.074218 6.496094-15.257812 6.496094-24v-16c0-17.722656-9.679688-33.191406-24-41.503906v-110.496094h-42.214844l-40 24h-29.785156c-8.824219 0-16 7.175782-16 16v64c0 8.824219 7.175781 16 16 16h29.785156l15.839844 9.503906c-3.578125 6.710938-5.625 14.367188-5.625 22.496094v16c0 8.742188 2.390625 16.925782 6.496094 24h-76.992188c4.105469-7.074218 6.496094-15.257812 6.496094-24v-16c0-26.472656-21.527344-48-48-48s-48 21.527344-48 48v16c0 8.742188 2.390625 16.925782 6.496094 24h-14.496094zm-16 274.101563c0-7.109375 4.777344-13.429688 11.601562-15.382813l32.957032-9.414062c4.640625 6.046875 13.664062 14.695312 27.441406 14.695312s22.800781-8.648437 27.441406-14.707031l32.957032 9.417969c6.824218 1.960937 11.601562 8.28125 11.601562 15.390625v21.898437h-144zm464 21.898437h-144v-21.898437c0-7.109375 4.777344-13.429688 11.601562-15.382813l32.957032-9.414062c4.640625 6.046875 13.664062 14.695312 27.441406 14.695312s22.800781-8.648437 27.441406-14.707031l32.957032 9.417969c6.824218 1.960937 11.601562 8.28125 11.601562 15.390625zm0 0"/><path d="m48 193.785156h16v16h-16zm0 0"/><path d="m80 193.785156h48v16h-48zm0 0"/><path d="m48 225.785156h16v16h-16zm0 0"/><path d="m80 225.785156h48v16h-48zm0 0"/><path d="m48 257.785156h16v16h-16zm0 0"/><path d="m80 257.785156h48v16h-48zm0 0"/><path d="m368 193.785156h16v16h-16zm0 0"/><path d="m400 193.785156h48v16h-48zm0 0"/><path d="m368 225.785156h16v16h-16zm0 0"/><path d="m400 225.785156h48v16h-48zm0 0"/><path d="m368 257.785156h16v16h-16zm0 0"/><path d="m400 257.785156h48v16h-48zm0 0"/></svg>